M48
METRIC,TZ
T1C0.400
T2C0.800
T3C1.000
%
G90
G05
T1
X129032Y-78486
X129032Y-82042
X131318Y-69088
X133858Y-68834
X133858Y-78740
T2
X123190Y-67564
X123190Y-70104
X123190Y-72644
X123190Y-75184
X123190Y-77724
X123190Y-80264
X123190Y-82804
X123190Y-85344
X123190Y-87884
X123190Y-90424
X123190Y-92964
X123190Y-95504
X123190Y-98044
X123190Y-100584
X138430Y-67564
X138430Y-70104
X138430Y-72644
X138430Y-75184
X138430Y-77724
X138430Y-80264
X138430Y-82804
X138430Y-85344
X138430Y-87884
X138430Y-90424
X138430Y-92964
X138430Y-95504
X138430Y-98044
X138430Y-100584
X129540Y-89916
X129540Y-97536
X120650Y-72644
X120650Y-75184
X120650Y-77724
X120650Y-80264
X120650Y-82804
X120650Y-85344
X120650Y-87884
X120650Y-90424
X120650Y-92964
X120650Y-95504
X120650Y-98044
X120650Y-100584
X135890Y-72644
X135890Y-75184
X135890Y-77724
X135890Y-80264
X135890Y-82804
X135890Y-85344
X135890Y-87884
X135890Y-90424
X135890Y-92964
X135890Y-95504
X135890Y-98044
X135890Y-100584
X132254Y-76444
X132254Y-84064
X127004Y-76444
X127004Y-84064
T3
X125500Y-64000
X128040Y-64000
X130580Y-64000
X133120Y-64000
T0
M30
