G04 #@! TF.GenerationSoftware,KiCad,Pcbnew,(5.1.6)-1*
G04 #@! TF.CreationDate,2020-07-21T10:16:09+03:00*
G04 #@! TF.ProjectId,C64_8Kernal,4336345f-384b-4657-926e-616c2e6b6963,rev?*
G04 #@! TF.SameCoordinates,Original*
G04 #@! TF.FileFunction,Soldermask,Bot*
G04 #@! TF.FilePolarity,Negative*
%FSLAX46Y46*%
G04 Gerber Fmt 4.6, Leading zero omitted, Abs format (unit mm)*
G04 Created by KiCad (PCBNEW (5.1.6)-1) date 2020-07-21 10:16:09*
%MOMM*%
%LPD*%
G01*
G04 APERTURE LIST*
%ADD10C,0.100000*%
G04 APERTURE END LIST*
D10*
G36*
X120898228Y-99765703D02*
G01*
X121053100Y-99829853D01*
X121192481Y-99922985D01*
X121311015Y-100041519D01*
X121404147Y-100180900D01*
X121468297Y-100335772D01*
X121501000Y-100500184D01*
X121501000Y-100667816D01*
X121468297Y-100832228D01*
X121404147Y-100987100D01*
X121311015Y-101126481D01*
X121192481Y-101245015D01*
X121053100Y-101338147D01*
X120898228Y-101402297D01*
X120733816Y-101435000D01*
X120566184Y-101435000D01*
X120401772Y-101402297D01*
X120246900Y-101338147D01*
X120107519Y-101245015D01*
X119988985Y-101126481D01*
X119895853Y-100987100D01*
X119831703Y-100832228D01*
X119799000Y-100667816D01*
X119799000Y-100500184D01*
X119831703Y-100335772D01*
X119895853Y-100180900D01*
X119988985Y-100041519D01*
X120107519Y-99922985D01*
X120246900Y-99829853D01*
X120401772Y-99765703D01*
X120566184Y-99733000D01*
X120733816Y-99733000D01*
X120898228Y-99765703D01*
G37*
G36*
X138678228Y-99765703D02*
G01*
X138833100Y-99829853D01*
X138972481Y-99922985D01*
X139091015Y-100041519D01*
X139184147Y-100180900D01*
X139248297Y-100335772D01*
X139281000Y-100500184D01*
X139281000Y-100667816D01*
X139248297Y-100832228D01*
X139184147Y-100987100D01*
X139091015Y-101126481D01*
X138972481Y-101245015D01*
X138833100Y-101338147D01*
X138678228Y-101402297D01*
X138513816Y-101435000D01*
X138346184Y-101435000D01*
X138181772Y-101402297D01*
X138026900Y-101338147D01*
X137887519Y-101245015D01*
X137768985Y-101126481D01*
X137675853Y-100987100D01*
X137611703Y-100832228D01*
X137579000Y-100667816D01*
X137579000Y-100500184D01*
X137611703Y-100335772D01*
X137675853Y-100180900D01*
X137768985Y-100041519D01*
X137887519Y-99922985D01*
X138026900Y-99829853D01*
X138181772Y-99765703D01*
X138346184Y-99733000D01*
X138513816Y-99733000D01*
X138678228Y-99765703D01*
G37*
G36*
X123438228Y-99765703D02*
G01*
X123593100Y-99829853D01*
X123732481Y-99922985D01*
X123851015Y-100041519D01*
X123944147Y-100180900D01*
X124008297Y-100335772D01*
X124041000Y-100500184D01*
X124041000Y-100667816D01*
X124008297Y-100832228D01*
X123944147Y-100987100D01*
X123851015Y-101126481D01*
X123732481Y-101245015D01*
X123593100Y-101338147D01*
X123438228Y-101402297D01*
X123273816Y-101435000D01*
X123106184Y-101435000D01*
X122941772Y-101402297D01*
X122786900Y-101338147D01*
X122647519Y-101245015D01*
X122528985Y-101126481D01*
X122435853Y-100987100D01*
X122371703Y-100832228D01*
X122339000Y-100667816D01*
X122339000Y-100500184D01*
X122371703Y-100335772D01*
X122435853Y-100180900D01*
X122528985Y-100041519D01*
X122647519Y-99922985D01*
X122786900Y-99829853D01*
X122941772Y-99765703D01*
X123106184Y-99733000D01*
X123273816Y-99733000D01*
X123438228Y-99765703D01*
G37*
G36*
X136138228Y-99765703D02*
G01*
X136293100Y-99829853D01*
X136432481Y-99922985D01*
X136551015Y-100041519D01*
X136644147Y-100180900D01*
X136708297Y-100335772D01*
X136741000Y-100500184D01*
X136741000Y-100667816D01*
X136708297Y-100832228D01*
X136644147Y-100987100D01*
X136551015Y-101126481D01*
X136432481Y-101245015D01*
X136293100Y-101338147D01*
X136138228Y-101402297D01*
X135973816Y-101435000D01*
X135806184Y-101435000D01*
X135641772Y-101402297D01*
X135486900Y-101338147D01*
X135347519Y-101245015D01*
X135228985Y-101126481D01*
X135135853Y-100987100D01*
X135071703Y-100832228D01*
X135039000Y-100667816D01*
X135039000Y-100500184D01*
X135071703Y-100335772D01*
X135135853Y-100180900D01*
X135228985Y-100041519D01*
X135347519Y-99922985D01*
X135486900Y-99829853D01*
X135641772Y-99765703D01*
X135806184Y-99733000D01*
X135973816Y-99733000D01*
X136138228Y-99765703D01*
G37*
G36*
X123438228Y-97225703D02*
G01*
X123593100Y-97289853D01*
X123732481Y-97382985D01*
X123851015Y-97501519D01*
X123944147Y-97640900D01*
X124008297Y-97795772D01*
X124041000Y-97960184D01*
X124041000Y-98127816D01*
X124008297Y-98292228D01*
X123944147Y-98447100D01*
X123851015Y-98586481D01*
X123732481Y-98705015D01*
X123593100Y-98798147D01*
X123438228Y-98862297D01*
X123273816Y-98895000D01*
X123106184Y-98895000D01*
X122941772Y-98862297D01*
X122786900Y-98798147D01*
X122647519Y-98705015D01*
X122528985Y-98586481D01*
X122435853Y-98447100D01*
X122371703Y-98292228D01*
X122339000Y-98127816D01*
X122339000Y-97960184D01*
X122371703Y-97795772D01*
X122435853Y-97640900D01*
X122528985Y-97501519D01*
X122647519Y-97382985D01*
X122786900Y-97289853D01*
X122941772Y-97225703D01*
X123106184Y-97193000D01*
X123273816Y-97193000D01*
X123438228Y-97225703D01*
G37*
G36*
X120898228Y-97225703D02*
G01*
X121053100Y-97289853D01*
X121192481Y-97382985D01*
X121311015Y-97501519D01*
X121404147Y-97640900D01*
X121468297Y-97795772D01*
X121501000Y-97960184D01*
X121501000Y-98127816D01*
X121468297Y-98292228D01*
X121404147Y-98447100D01*
X121311015Y-98586481D01*
X121192481Y-98705015D01*
X121053100Y-98798147D01*
X120898228Y-98862297D01*
X120733816Y-98895000D01*
X120566184Y-98895000D01*
X120401772Y-98862297D01*
X120246900Y-98798147D01*
X120107519Y-98705015D01*
X119988985Y-98586481D01*
X119895853Y-98447100D01*
X119831703Y-98292228D01*
X119799000Y-98127816D01*
X119799000Y-97960184D01*
X119831703Y-97795772D01*
X119895853Y-97640900D01*
X119988985Y-97501519D01*
X120107519Y-97382985D01*
X120246900Y-97289853D01*
X120401772Y-97225703D01*
X120566184Y-97193000D01*
X120733816Y-97193000D01*
X120898228Y-97225703D01*
G37*
G36*
X136138228Y-97225703D02*
G01*
X136293100Y-97289853D01*
X136432481Y-97382985D01*
X136551015Y-97501519D01*
X136644147Y-97640900D01*
X136708297Y-97795772D01*
X136741000Y-97960184D01*
X136741000Y-98127816D01*
X136708297Y-98292228D01*
X136644147Y-98447100D01*
X136551015Y-98586481D01*
X136432481Y-98705015D01*
X136293100Y-98798147D01*
X136138228Y-98862297D01*
X135973816Y-98895000D01*
X135806184Y-98895000D01*
X135641772Y-98862297D01*
X135486900Y-98798147D01*
X135347519Y-98705015D01*
X135228985Y-98586481D01*
X135135853Y-98447100D01*
X135071703Y-98292228D01*
X135039000Y-98127816D01*
X135039000Y-97960184D01*
X135071703Y-97795772D01*
X135135853Y-97640900D01*
X135228985Y-97501519D01*
X135347519Y-97382985D01*
X135486900Y-97289853D01*
X135641772Y-97225703D01*
X135806184Y-97193000D01*
X135973816Y-97193000D01*
X136138228Y-97225703D01*
G37*
G36*
X138678228Y-97225703D02*
G01*
X138833100Y-97289853D01*
X138972481Y-97382985D01*
X139091015Y-97501519D01*
X139184147Y-97640900D01*
X139248297Y-97795772D01*
X139281000Y-97960184D01*
X139281000Y-98127816D01*
X139248297Y-98292228D01*
X139184147Y-98447100D01*
X139091015Y-98586481D01*
X138972481Y-98705015D01*
X138833100Y-98798147D01*
X138678228Y-98862297D01*
X138513816Y-98895000D01*
X138346184Y-98895000D01*
X138181772Y-98862297D01*
X138026900Y-98798147D01*
X137887519Y-98705015D01*
X137768985Y-98586481D01*
X137675853Y-98447100D01*
X137611703Y-98292228D01*
X137579000Y-98127816D01*
X137579000Y-97960184D01*
X137611703Y-97795772D01*
X137675853Y-97640900D01*
X137768985Y-97501519D01*
X137887519Y-97382985D01*
X138026900Y-97289853D01*
X138181772Y-97225703D01*
X138346184Y-97193000D01*
X138513816Y-97193000D01*
X138678228Y-97225703D01*
G37*
G36*
X129788228Y-96717703D02*
G01*
X129943100Y-96781853D01*
X130082481Y-96874985D01*
X130201015Y-96993519D01*
X130294147Y-97132900D01*
X130358297Y-97287772D01*
X130391000Y-97452184D01*
X130391000Y-97619816D01*
X130358297Y-97784228D01*
X130294147Y-97939100D01*
X130201015Y-98078481D01*
X130082481Y-98197015D01*
X129943100Y-98290147D01*
X129788228Y-98354297D01*
X129623816Y-98387000D01*
X129456184Y-98387000D01*
X129291772Y-98354297D01*
X129136900Y-98290147D01*
X128997519Y-98197015D01*
X128878985Y-98078481D01*
X128785853Y-97939100D01*
X128721703Y-97784228D01*
X128689000Y-97619816D01*
X128689000Y-97452184D01*
X128721703Y-97287772D01*
X128785853Y-97132900D01*
X128878985Y-96993519D01*
X128997519Y-96874985D01*
X129136900Y-96781853D01*
X129291772Y-96717703D01*
X129456184Y-96685000D01*
X129623816Y-96685000D01*
X129788228Y-96717703D01*
G37*
G36*
X123438228Y-94685703D02*
G01*
X123593100Y-94749853D01*
X123732481Y-94842985D01*
X123851015Y-94961519D01*
X123944147Y-95100900D01*
X124008297Y-95255772D01*
X124041000Y-95420184D01*
X124041000Y-95587816D01*
X124008297Y-95752228D01*
X123944147Y-95907100D01*
X123851015Y-96046481D01*
X123732481Y-96165015D01*
X123593100Y-96258147D01*
X123438228Y-96322297D01*
X123273816Y-96355000D01*
X123106184Y-96355000D01*
X122941772Y-96322297D01*
X122786900Y-96258147D01*
X122647519Y-96165015D01*
X122528985Y-96046481D01*
X122435853Y-95907100D01*
X122371703Y-95752228D01*
X122339000Y-95587816D01*
X122339000Y-95420184D01*
X122371703Y-95255772D01*
X122435853Y-95100900D01*
X122528985Y-94961519D01*
X122647519Y-94842985D01*
X122786900Y-94749853D01*
X122941772Y-94685703D01*
X123106184Y-94653000D01*
X123273816Y-94653000D01*
X123438228Y-94685703D01*
G37*
G36*
X120898228Y-94685703D02*
G01*
X121053100Y-94749853D01*
X121192481Y-94842985D01*
X121311015Y-94961519D01*
X121404147Y-95100900D01*
X121468297Y-95255772D01*
X121501000Y-95420184D01*
X121501000Y-95587816D01*
X121468297Y-95752228D01*
X121404147Y-95907100D01*
X121311015Y-96046481D01*
X121192481Y-96165015D01*
X121053100Y-96258147D01*
X120898228Y-96322297D01*
X120733816Y-96355000D01*
X120566184Y-96355000D01*
X120401772Y-96322297D01*
X120246900Y-96258147D01*
X120107519Y-96165015D01*
X119988985Y-96046481D01*
X119895853Y-95907100D01*
X119831703Y-95752228D01*
X119799000Y-95587816D01*
X119799000Y-95420184D01*
X119831703Y-95255772D01*
X119895853Y-95100900D01*
X119988985Y-94961519D01*
X120107519Y-94842985D01*
X120246900Y-94749853D01*
X120401772Y-94685703D01*
X120566184Y-94653000D01*
X120733816Y-94653000D01*
X120898228Y-94685703D01*
G37*
G36*
X136138228Y-94685703D02*
G01*
X136293100Y-94749853D01*
X136432481Y-94842985D01*
X136551015Y-94961519D01*
X136644147Y-95100900D01*
X136708297Y-95255772D01*
X136741000Y-95420184D01*
X136741000Y-95587816D01*
X136708297Y-95752228D01*
X136644147Y-95907100D01*
X136551015Y-96046481D01*
X136432481Y-96165015D01*
X136293100Y-96258147D01*
X136138228Y-96322297D01*
X135973816Y-96355000D01*
X135806184Y-96355000D01*
X135641772Y-96322297D01*
X135486900Y-96258147D01*
X135347519Y-96165015D01*
X135228985Y-96046481D01*
X135135853Y-95907100D01*
X135071703Y-95752228D01*
X135039000Y-95587816D01*
X135039000Y-95420184D01*
X135071703Y-95255772D01*
X135135853Y-95100900D01*
X135228985Y-94961519D01*
X135347519Y-94842985D01*
X135486900Y-94749853D01*
X135641772Y-94685703D01*
X135806184Y-94653000D01*
X135973816Y-94653000D01*
X136138228Y-94685703D01*
G37*
G36*
X138678228Y-94685703D02*
G01*
X138833100Y-94749853D01*
X138972481Y-94842985D01*
X139091015Y-94961519D01*
X139184147Y-95100900D01*
X139248297Y-95255772D01*
X139281000Y-95420184D01*
X139281000Y-95587816D01*
X139248297Y-95752228D01*
X139184147Y-95907100D01*
X139091015Y-96046481D01*
X138972481Y-96165015D01*
X138833100Y-96258147D01*
X138678228Y-96322297D01*
X138513816Y-96355000D01*
X138346184Y-96355000D01*
X138181772Y-96322297D01*
X138026900Y-96258147D01*
X137887519Y-96165015D01*
X137768985Y-96046481D01*
X137675853Y-95907100D01*
X137611703Y-95752228D01*
X137579000Y-95587816D01*
X137579000Y-95420184D01*
X137611703Y-95255772D01*
X137675853Y-95100900D01*
X137768985Y-94961519D01*
X137887519Y-94842985D01*
X138026900Y-94749853D01*
X138181772Y-94685703D01*
X138346184Y-94653000D01*
X138513816Y-94653000D01*
X138678228Y-94685703D01*
G37*
G36*
X136138228Y-92145703D02*
G01*
X136293100Y-92209853D01*
X136432481Y-92302985D01*
X136551015Y-92421519D01*
X136644147Y-92560900D01*
X136708297Y-92715772D01*
X136741000Y-92880184D01*
X136741000Y-93047816D01*
X136708297Y-93212228D01*
X136644147Y-93367100D01*
X136551015Y-93506481D01*
X136432481Y-93625015D01*
X136293100Y-93718147D01*
X136138228Y-93782297D01*
X135973816Y-93815000D01*
X135806184Y-93815000D01*
X135641772Y-93782297D01*
X135486900Y-93718147D01*
X135347519Y-93625015D01*
X135228985Y-93506481D01*
X135135853Y-93367100D01*
X135071703Y-93212228D01*
X135039000Y-93047816D01*
X135039000Y-92880184D01*
X135071703Y-92715772D01*
X135135853Y-92560900D01*
X135228985Y-92421519D01*
X135347519Y-92302985D01*
X135486900Y-92209853D01*
X135641772Y-92145703D01*
X135806184Y-92113000D01*
X135973816Y-92113000D01*
X136138228Y-92145703D01*
G37*
G36*
X123438228Y-92145703D02*
G01*
X123593100Y-92209853D01*
X123732481Y-92302985D01*
X123851015Y-92421519D01*
X123944147Y-92560900D01*
X124008297Y-92715772D01*
X124041000Y-92880184D01*
X124041000Y-93047816D01*
X124008297Y-93212228D01*
X123944147Y-93367100D01*
X123851015Y-93506481D01*
X123732481Y-93625015D01*
X123593100Y-93718147D01*
X123438228Y-93782297D01*
X123273816Y-93815000D01*
X123106184Y-93815000D01*
X122941772Y-93782297D01*
X122786900Y-93718147D01*
X122647519Y-93625015D01*
X122528985Y-93506481D01*
X122435853Y-93367100D01*
X122371703Y-93212228D01*
X122339000Y-93047816D01*
X122339000Y-92880184D01*
X122371703Y-92715772D01*
X122435853Y-92560900D01*
X122528985Y-92421519D01*
X122647519Y-92302985D01*
X122786900Y-92209853D01*
X122941772Y-92145703D01*
X123106184Y-92113000D01*
X123273816Y-92113000D01*
X123438228Y-92145703D01*
G37*
G36*
X120898228Y-92145703D02*
G01*
X121053100Y-92209853D01*
X121192481Y-92302985D01*
X121311015Y-92421519D01*
X121404147Y-92560900D01*
X121468297Y-92715772D01*
X121501000Y-92880184D01*
X121501000Y-93047816D01*
X121468297Y-93212228D01*
X121404147Y-93367100D01*
X121311015Y-93506481D01*
X121192481Y-93625015D01*
X121053100Y-93718147D01*
X120898228Y-93782297D01*
X120733816Y-93815000D01*
X120566184Y-93815000D01*
X120401772Y-93782297D01*
X120246900Y-93718147D01*
X120107519Y-93625015D01*
X119988985Y-93506481D01*
X119895853Y-93367100D01*
X119831703Y-93212228D01*
X119799000Y-93047816D01*
X119799000Y-92880184D01*
X119831703Y-92715772D01*
X119895853Y-92560900D01*
X119988985Y-92421519D01*
X120107519Y-92302985D01*
X120246900Y-92209853D01*
X120401772Y-92145703D01*
X120566184Y-92113000D01*
X120733816Y-92113000D01*
X120898228Y-92145703D01*
G37*
G36*
X138678228Y-92145703D02*
G01*
X138833100Y-92209853D01*
X138972481Y-92302985D01*
X139091015Y-92421519D01*
X139184147Y-92560900D01*
X139248297Y-92715772D01*
X139281000Y-92880184D01*
X139281000Y-93047816D01*
X139248297Y-93212228D01*
X139184147Y-93367100D01*
X139091015Y-93506481D01*
X138972481Y-93625015D01*
X138833100Y-93718147D01*
X138678228Y-93782297D01*
X138513816Y-93815000D01*
X138346184Y-93815000D01*
X138181772Y-93782297D01*
X138026900Y-93718147D01*
X137887519Y-93625015D01*
X137768985Y-93506481D01*
X137675853Y-93367100D01*
X137611703Y-93212228D01*
X137579000Y-93047816D01*
X137579000Y-92880184D01*
X137611703Y-92715772D01*
X137675853Y-92560900D01*
X137768985Y-92421519D01*
X137887519Y-92302985D01*
X138026900Y-92209853D01*
X138181772Y-92145703D01*
X138346184Y-92113000D01*
X138513816Y-92113000D01*
X138678228Y-92145703D01*
G37*
G36*
X120898228Y-89605703D02*
G01*
X121053100Y-89669853D01*
X121192481Y-89762985D01*
X121311015Y-89881519D01*
X121404147Y-90020900D01*
X121468297Y-90175772D01*
X121501000Y-90340184D01*
X121501000Y-90507816D01*
X121468297Y-90672228D01*
X121404147Y-90827100D01*
X121311015Y-90966481D01*
X121192481Y-91085015D01*
X121053100Y-91178147D01*
X120898228Y-91242297D01*
X120733816Y-91275000D01*
X120566184Y-91275000D01*
X120401772Y-91242297D01*
X120246900Y-91178147D01*
X120107519Y-91085015D01*
X119988985Y-90966481D01*
X119895853Y-90827100D01*
X119831703Y-90672228D01*
X119799000Y-90507816D01*
X119799000Y-90340184D01*
X119831703Y-90175772D01*
X119895853Y-90020900D01*
X119988985Y-89881519D01*
X120107519Y-89762985D01*
X120246900Y-89669853D01*
X120401772Y-89605703D01*
X120566184Y-89573000D01*
X120733816Y-89573000D01*
X120898228Y-89605703D01*
G37*
G36*
X123438228Y-89605703D02*
G01*
X123593100Y-89669853D01*
X123732481Y-89762985D01*
X123851015Y-89881519D01*
X123944147Y-90020900D01*
X124008297Y-90175772D01*
X124041000Y-90340184D01*
X124041000Y-90507816D01*
X124008297Y-90672228D01*
X123944147Y-90827100D01*
X123851015Y-90966481D01*
X123732481Y-91085015D01*
X123593100Y-91178147D01*
X123438228Y-91242297D01*
X123273816Y-91275000D01*
X123106184Y-91275000D01*
X122941772Y-91242297D01*
X122786900Y-91178147D01*
X122647519Y-91085015D01*
X122528985Y-90966481D01*
X122435853Y-90827100D01*
X122371703Y-90672228D01*
X122339000Y-90507816D01*
X122339000Y-90340184D01*
X122371703Y-90175772D01*
X122435853Y-90020900D01*
X122528985Y-89881519D01*
X122647519Y-89762985D01*
X122786900Y-89669853D01*
X122941772Y-89605703D01*
X123106184Y-89573000D01*
X123273816Y-89573000D01*
X123438228Y-89605703D01*
G37*
G36*
X136138228Y-89605703D02*
G01*
X136293100Y-89669853D01*
X136432481Y-89762985D01*
X136551015Y-89881519D01*
X136644147Y-90020900D01*
X136708297Y-90175772D01*
X136741000Y-90340184D01*
X136741000Y-90507816D01*
X136708297Y-90672228D01*
X136644147Y-90827100D01*
X136551015Y-90966481D01*
X136432481Y-91085015D01*
X136293100Y-91178147D01*
X136138228Y-91242297D01*
X135973816Y-91275000D01*
X135806184Y-91275000D01*
X135641772Y-91242297D01*
X135486900Y-91178147D01*
X135347519Y-91085015D01*
X135228985Y-90966481D01*
X135135853Y-90827100D01*
X135071703Y-90672228D01*
X135039000Y-90507816D01*
X135039000Y-90340184D01*
X135071703Y-90175772D01*
X135135853Y-90020900D01*
X135228985Y-89881519D01*
X135347519Y-89762985D01*
X135486900Y-89669853D01*
X135641772Y-89605703D01*
X135806184Y-89573000D01*
X135973816Y-89573000D01*
X136138228Y-89605703D01*
G37*
G36*
X138678228Y-89605703D02*
G01*
X138833100Y-89669853D01*
X138972481Y-89762985D01*
X139091015Y-89881519D01*
X139184147Y-90020900D01*
X139248297Y-90175772D01*
X139281000Y-90340184D01*
X139281000Y-90507816D01*
X139248297Y-90672228D01*
X139184147Y-90827100D01*
X139091015Y-90966481D01*
X138972481Y-91085015D01*
X138833100Y-91178147D01*
X138678228Y-91242297D01*
X138513816Y-91275000D01*
X138346184Y-91275000D01*
X138181772Y-91242297D01*
X138026900Y-91178147D01*
X137887519Y-91085015D01*
X137768985Y-90966481D01*
X137675853Y-90827100D01*
X137611703Y-90672228D01*
X137579000Y-90507816D01*
X137579000Y-90340184D01*
X137611703Y-90175772D01*
X137675853Y-90020900D01*
X137768985Y-89881519D01*
X137887519Y-89762985D01*
X138026900Y-89669853D01*
X138181772Y-89605703D01*
X138346184Y-89573000D01*
X138513816Y-89573000D01*
X138678228Y-89605703D01*
G37*
G36*
X129788228Y-89097703D02*
G01*
X129943100Y-89161853D01*
X130082481Y-89254985D01*
X130201015Y-89373519D01*
X130294147Y-89512900D01*
X130358297Y-89667772D01*
X130391000Y-89832184D01*
X130391000Y-89999816D01*
X130358297Y-90164228D01*
X130294147Y-90319100D01*
X130201015Y-90458481D01*
X130082481Y-90577015D01*
X129943100Y-90670147D01*
X129788228Y-90734297D01*
X129623816Y-90767000D01*
X129456184Y-90767000D01*
X129291772Y-90734297D01*
X129136900Y-90670147D01*
X128997519Y-90577015D01*
X128878985Y-90458481D01*
X128785853Y-90319100D01*
X128721703Y-90164228D01*
X128689000Y-89999816D01*
X128689000Y-89832184D01*
X128721703Y-89667772D01*
X128785853Y-89512900D01*
X128878985Y-89373519D01*
X128997519Y-89254985D01*
X129136900Y-89161853D01*
X129291772Y-89097703D01*
X129456184Y-89065000D01*
X129623816Y-89065000D01*
X129788228Y-89097703D01*
G37*
G36*
X138678228Y-87065703D02*
G01*
X138833100Y-87129853D01*
X138972481Y-87222985D01*
X139091015Y-87341519D01*
X139184147Y-87480900D01*
X139248297Y-87635772D01*
X139281000Y-87800184D01*
X139281000Y-87967816D01*
X139248297Y-88132228D01*
X139184147Y-88287100D01*
X139091015Y-88426481D01*
X138972481Y-88545015D01*
X138833100Y-88638147D01*
X138678228Y-88702297D01*
X138513816Y-88735000D01*
X138346184Y-88735000D01*
X138181772Y-88702297D01*
X138026900Y-88638147D01*
X137887519Y-88545015D01*
X137768985Y-88426481D01*
X137675853Y-88287100D01*
X137611703Y-88132228D01*
X137579000Y-87967816D01*
X137579000Y-87800184D01*
X137611703Y-87635772D01*
X137675853Y-87480900D01*
X137768985Y-87341519D01*
X137887519Y-87222985D01*
X138026900Y-87129853D01*
X138181772Y-87065703D01*
X138346184Y-87033000D01*
X138513816Y-87033000D01*
X138678228Y-87065703D01*
G37*
G36*
X120898228Y-87065703D02*
G01*
X121053100Y-87129853D01*
X121192481Y-87222985D01*
X121311015Y-87341519D01*
X121404147Y-87480900D01*
X121468297Y-87635772D01*
X121501000Y-87800184D01*
X121501000Y-87967816D01*
X121468297Y-88132228D01*
X121404147Y-88287100D01*
X121311015Y-88426481D01*
X121192481Y-88545015D01*
X121053100Y-88638147D01*
X120898228Y-88702297D01*
X120733816Y-88735000D01*
X120566184Y-88735000D01*
X120401772Y-88702297D01*
X120246900Y-88638147D01*
X120107519Y-88545015D01*
X119988985Y-88426481D01*
X119895853Y-88287100D01*
X119831703Y-88132228D01*
X119799000Y-87967816D01*
X119799000Y-87800184D01*
X119831703Y-87635772D01*
X119895853Y-87480900D01*
X119988985Y-87341519D01*
X120107519Y-87222985D01*
X120246900Y-87129853D01*
X120401772Y-87065703D01*
X120566184Y-87033000D01*
X120733816Y-87033000D01*
X120898228Y-87065703D01*
G37*
G36*
X136138228Y-87065703D02*
G01*
X136293100Y-87129853D01*
X136432481Y-87222985D01*
X136551015Y-87341519D01*
X136644147Y-87480900D01*
X136708297Y-87635772D01*
X136741000Y-87800184D01*
X136741000Y-87967816D01*
X136708297Y-88132228D01*
X136644147Y-88287100D01*
X136551015Y-88426481D01*
X136432481Y-88545015D01*
X136293100Y-88638147D01*
X136138228Y-88702297D01*
X135973816Y-88735000D01*
X135806184Y-88735000D01*
X135641772Y-88702297D01*
X135486900Y-88638147D01*
X135347519Y-88545015D01*
X135228985Y-88426481D01*
X135135853Y-88287100D01*
X135071703Y-88132228D01*
X135039000Y-87967816D01*
X135039000Y-87800184D01*
X135071703Y-87635772D01*
X135135853Y-87480900D01*
X135228985Y-87341519D01*
X135347519Y-87222985D01*
X135486900Y-87129853D01*
X135641772Y-87065703D01*
X135806184Y-87033000D01*
X135973816Y-87033000D01*
X136138228Y-87065703D01*
G37*
G36*
X123438228Y-87065703D02*
G01*
X123593100Y-87129853D01*
X123732481Y-87222985D01*
X123851015Y-87341519D01*
X123944147Y-87480900D01*
X124008297Y-87635772D01*
X124041000Y-87800184D01*
X124041000Y-87967816D01*
X124008297Y-88132228D01*
X123944147Y-88287100D01*
X123851015Y-88426481D01*
X123732481Y-88545015D01*
X123593100Y-88638147D01*
X123438228Y-88702297D01*
X123273816Y-88735000D01*
X123106184Y-88735000D01*
X122941772Y-88702297D01*
X122786900Y-88638147D01*
X122647519Y-88545015D01*
X122528985Y-88426481D01*
X122435853Y-88287100D01*
X122371703Y-88132228D01*
X122339000Y-87967816D01*
X122339000Y-87800184D01*
X122371703Y-87635772D01*
X122435853Y-87480900D01*
X122528985Y-87341519D01*
X122647519Y-87222985D01*
X122786900Y-87129853D01*
X122941772Y-87065703D01*
X123106184Y-87033000D01*
X123273816Y-87033000D01*
X123438228Y-87065703D01*
G37*
G36*
X136138228Y-84525703D02*
G01*
X136293100Y-84589853D01*
X136432481Y-84682985D01*
X136551015Y-84801519D01*
X136644147Y-84940900D01*
X136708297Y-85095772D01*
X136741000Y-85260184D01*
X136741000Y-85427816D01*
X136708297Y-85592228D01*
X136644147Y-85747100D01*
X136551015Y-85886481D01*
X136432481Y-86005015D01*
X136293100Y-86098147D01*
X136138228Y-86162297D01*
X135973816Y-86195000D01*
X135806184Y-86195000D01*
X135641772Y-86162297D01*
X135486900Y-86098147D01*
X135347519Y-86005015D01*
X135228985Y-85886481D01*
X135135853Y-85747100D01*
X135071703Y-85592228D01*
X135039000Y-85427816D01*
X135039000Y-85260184D01*
X135071703Y-85095772D01*
X135135853Y-84940900D01*
X135228985Y-84801519D01*
X135347519Y-84682985D01*
X135486900Y-84589853D01*
X135641772Y-84525703D01*
X135806184Y-84493000D01*
X135973816Y-84493000D01*
X136138228Y-84525703D01*
G37*
G36*
X120898228Y-84525703D02*
G01*
X121053100Y-84589853D01*
X121192481Y-84682985D01*
X121311015Y-84801519D01*
X121404147Y-84940900D01*
X121468297Y-85095772D01*
X121501000Y-85260184D01*
X121501000Y-85427816D01*
X121468297Y-85592228D01*
X121404147Y-85747100D01*
X121311015Y-85886481D01*
X121192481Y-86005015D01*
X121053100Y-86098147D01*
X120898228Y-86162297D01*
X120733816Y-86195000D01*
X120566184Y-86195000D01*
X120401772Y-86162297D01*
X120246900Y-86098147D01*
X120107519Y-86005015D01*
X119988985Y-85886481D01*
X119895853Y-85747100D01*
X119831703Y-85592228D01*
X119799000Y-85427816D01*
X119799000Y-85260184D01*
X119831703Y-85095772D01*
X119895853Y-84940900D01*
X119988985Y-84801519D01*
X120107519Y-84682985D01*
X120246900Y-84589853D01*
X120401772Y-84525703D01*
X120566184Y-84493000D01*
X120733816Y-84493000D01*
X120898228Y-84525703D01*
G37*
G36*
X138678228Y-84525703D02*
G01*
X138833100Y-84589853D01*
X138972481Y-84682985D01*
X139091015Y-84801519D01*
X139184147Y-84940900D01*
X139248297Y-85095772D01*
X139281000Y-85260184D01*
X139281000Y-85427816D01*
X139248297Y-85592228D01*
X139184147Y-85747100D01*
X139091015Y-85886481D01*
X138972481Y-86005015D01*
X138833100Y-86098147D01*
X138678228Y-86162297D01*
X138513816Y-86195000D01*
X138346184Y-86195000D01*
X138181772Y-86162297D01*
X138026900Y-86098147D01*
X137887519Y-86005015D01*
X137768985Y-85886481D01*
X137675853Y-85747100D01*
X137611703Y-85592228D01*
X137579000Y-85427816D01*
X137579000Y-85260184D01*
X137611703Y-85095772D01*
X137675853Y-84940900D01*
X137768985Y-84801519D01*
X137887519Y-84682985D01*
X138026900Y-84589853D01*
X138181772Y-84525703D01*
X138346184Y-84493000D01*
X138513816Y-84493000D01*
X138678228Y-84525703D01*
G37*
G36*
X123438228Y-84525703D02*
G01*
X123593100Y-84589853D01*
X123732481Y-84682985D01*
X123851015Y-84801519D01*
X123944147Y-84940900D01*
X124008297Y-85095772D01*
X124041000Y-85260184D01*
X124041000Y-85427816D01*
X124008297Y-85592228D01*
X123944147Y-85747100D01*
X123851015Y-85886481D01*
X123732481Y-86005015D01*
X123593100Y-86098147D01*
X123438228Y-86162297D01*
X123273816Y-86195000D01*
X123106184Y-86195000D01*
X122941772Y-86162297D01*
X122786900Y-86098147D01*
X122647519Y-86005015D01*
X122528985Y-85886481D01*
X122435853Y-85747100D01*
X122371703Y-85592228D01*
X122339000Y-85427816D01*
X122339000Y-85260184D01*
X122371703Y-85095772D01*
X122435853Y-84940900D01*
X122528985Y-84801519D01*
X122647519Y-84682985D01*
X122786900Y-84589853D01*
X122941772Y-84525703D01*
X123106184Y-84493000D01*
X123273816Y-84493000D01*
X123438228Y-84525703D01*
G37*
G36*
X127252228Y-83245703D02*
G01*
X127407100Y-83309853D01*
X127546481Y-83402985D01*
X127665015Y-83521519D01*
X127758147Y-83660900D01*
X127822297Y-83815772D01*
X127855000Y-83980184D01*
X127855000Y-84147816D01*
X127822297Y-84312228D01*
X127758147Y-84467100D01*
X127665015Y-84606481D01*
X127546481Y-84725015D01*
X127407100Y-84818147D01*
X127252228Y-84882297D01*
X127087816Y-84915000D01*
X126920184Y-84915000D01*
X126755772Y-84882297D01*
X126600900Y-84818147D01*
X126461519Y-84725015D01*
X126342985Y-84606481D01*
X126249853Y-84467100D01*
X126185703Y-84312228D01*
X126153000Y-84147816D01*
X126153000Y-83980184D01*
X126185703Y-83815772D01*
X126249853Y-83660900D01*
X126342985Y-83521519D01*
X126461519Y-83402985D01*
X126600900Y-83309853D01*
X126755772Y-83245703D01*
X126920184Y-83213000D01*
X127087816Y-83213000D01*
X127252228Y-83245703D01*
G37*
G36*
X132502228Y-83245703D02*
G01*
X132657100Y-83309853D01*
X132796481Y-83402985D01*
X132915015Y-83521519D01*
X133008147Y-83660900D01*
X133072297Y-83815772D01*
X133105000Y-83980184D01*
X133105000Y-84147816D01*
X133072297Y-84312228D01*
X133008147Y-84467100D01*
X132915015Y-84606481D01*
X132796481Y-84725015D01*
X132657100Y-84818147D01*
X132502228Y-84882297D01*
X132337816Y-84915000D01*
X132170184Y-84915000D01*
X132005772Y-84882297D01*
X131850900Y-84818147D01*
X131711519Y-84725015D01*
X131592985Y-84606481D01*
X131499853Y-84467100D01*
X131435703Y-84312228D01*
X131403000Y-84147816D01*
X131403000Y-83980184D01*
X131435703Y-83815772D01*
X131499853Y-83660900D01*
X131592985Y-83521519D01*
X131711519Y-83402985D01*
X131850900Y-83309853D01*
X132005772Y-83245703D01*
X132170184Y-83213000D01*
X132337816Y-83213000D01*
X132502228Y-83245703D01*
G37*
G36*
X136138228Y-81985703D02*
G01*
X136293100Y-82049853D01*
X136432481Y-82142985D01*
X136551015Y-82261519D01*
X136644147Y-82400900D01*
X136708297Y-82555772D01*
X136741000Y-82720184D01*
X136741000Y-82887816D01*
X136708297Y-83052228D01*
X136644147Y-83207100D01*
X136551015Y-83346481D01*
X136432481Y-83465015D01*
X136293100Y-83558147D01*
X136138228Y-83622297D01*
X135973816Y-83655000D01*
X135806184Y-83655000D01*
X135641772Y-83622297D01*
X135486900Y-83558147D01*
X135347519Y-83465015D01*
X135228985Y-83346481D01*
X135135853Y-83207100D01*
X135071703Y-83052228D01*
X135039000Y-82887816D01*
X135039000Y-82720184D01*
X135071703Y-82555772D01*
X135135853Y-82400900D01*
X135228985Y-82261519D01*
X135347519Y-82142985D01*
X135486900Y-82049853D01*
X135641772Y-81985703D01*
X135806184Y-81953000D01*
X135973816Y-81953000D01*
X136138228Y-81985703D01*
G37*
G36*
X120898228Y-81985703D02*
G01*
X121053100Y-82049853D01*
X121192481Y-82142985D01*
X121311015Y-82261519D01*
X121404147Y-82400900D01*
X121468297Y-82555772D01*
X121501000Y-82720184D01*
X121501000Y-82887816D01*
X121468297Y-83052228D01*
X121404147Y-83207100D01*
X121311015Y-83346481D01*
X121192481Y-83465015D01*
X121053100Y-83558147D01*
X120898228Y-83622297D01*
X120733816Y-83655000D01*
X120566184Y-83655000D01*
X120401772Y-83622297D01*
X120246900Y-83558147D01*
X120107519Y-83465015D01*
X119988985Y-83346481D01*
X119895853Y-83207100D01*
X119831703Y-83052228D01*
X119799000Y-82887816D01*
X119799000Y-82720184D01*
X119831703Y-82555772D01*
X119895853Y-82400900D01*
X119988985Y-82261519D01*
X120107519Y-82142985D01*
X120246900Y-82049853D01*
X120401772Y-81985703D01*
X120566184Y-81953000D01*
X120733816Y-81953000D01*
X120898228Y-81985703D01*
G37*
G36*
X123438228Y-81985703D02*
G01*
X123593100Y-82049853D01*
X123732481Y-82142985D01*
X123851015Y-82261519D01*
X123944147Y-82400900D01*
X124008297Y-82555772D01*
X124041000Y-82720184D01*
X124041000Y-82887816D01*
X124008297Y-83052228D01*
X123944147Y-83207100D01*
X123851015Y-83346481D01*
X123732481Y-83465015D01*
X123593100Y-83558147D01*
X123438228Y-83622297D01*
X123273816Y-83655000D01*
X123106184Y-83655000D01*
X122941772Y-83622297D01*
X122786900Y-83558147D01*
X122647519Y-83465015D01*
X122528985Y-83346481D01*
X122435853Y-83207100D01*
X122371703Y-83052228D01*
X122339000Y-82887816D01*
X122339000Y-82720184D01*
X122371703Y-82555772D01*
X122435853Y-82400900D01*
X122528985Y-82261519D01*
X122647519Y-82142985D01*
X122786900Y-82049853D01*
X122941772Y-81985703D01*
X123106184Y-81953000D01*
X123273816Y-81953000D01*
X123438228Y-81985703D01*
G37*
G36*
X138678228Y-81985703D02*
G01*
X138833100Y-82049853D01*
X138972481Y-82142985D01*
X139091015Y-82261519D01*
X139184147Y-82400900D01*
X139248297Y-82555772D01*
X139281000Y-82720184D01*
X139281000Y-82887816D01*
X139248297Y-83052228D01*
X139184147Y-83207100D01*
X139091015Y-83346481D01*
X138972481Y-83465015D01*
X138833100Y-83558147D01*
X138678228Y-83622297D01*
X138513816Y-83655000D01*
X138346184Y-83655000D01*
X138181772Y-83622297D01*
X138026900Y-83558147D01*
X137887519Y-83465015D01*
X137768985Y-83346481D01*
X137675853Y-83207100D01*
X137611703Y-83052228D01*
X137579000Y-82887816D01*
X137579000Y-82720184D01*
X137611703Y-82555772D01*
X137675853Y-82400900D01*
X137768985Y-82261519D01*
X137887519Y-82142985D01*
X138026900Y-82049853D01*
X138181772Y-81985703D01*
X138346184Y-81953000D01*
X138513816Y-81953000D01*
X138678228Y-81985703D01*
G37*
G36*
X138678228Y-79445703D02*
G01*
X138833100Y-79509853D01*
X138972481Y-79602985D01*
X139091015Y-79721519D01*
X139184147Y-79860900D01*
X139248297Y-80015772D01*
X139281000Y-80180184D01*
X139281000Y-80347816D01*
X139248297Y-80512228D01*
X139184147Y-80667100D01*
X139091015Y-80806481D01*
X138972481Y-80925015D01*
X138833100Y-81018147D01*
X138678228Y-81082297D01*
X138513816Y-81115000D01*
X138346184Y-81115000D01*
X138181772Y-81082297D01*
X138026900Y-81018147D01*
X137887519Y-80925015D01*
X137768985Y-80806481D01*
X137675853Y-80667100D01*
X137611703Y-80512228D01*
X137579000Y-80347816D01*
X137579000Y-80180184D01*
X137611703Y-80015772D01*
X137675853Y-79860900D01*
X137768985Y-79721519D01*
X137887519Y-79602985D01*
X138026900Y-79509853D01*
X138181772Y-79445703D01*
X138346184Y-79413000D01*
X138513816Y-79413000D01*
X138678228Y-79445703D01*
G37*
G36*
X136138228Y-79445703D02*
G01*
X136293100Y-79509853D01*
X136432481Y-79602985D01*
X136551015Y-79721519D01*
X136644147Y-79860900D01*
X136708297Y-80015772D01*
X136741000Y-80180184D01*
X136741000Y-80347816D01*
X136708297Y-80512228D01*
X136644147Y-80667100D01*
X136551015Y-80806481D01*
X136432481Y-80925015D01*
X136293100Y-81018147D01*
X136138228Y-81082297D01*
X135973816Y-81115000D01*
X135806184Y-81115000D01*
X135641772Y-81082297D01*
X135486900Y-81018147D01*
X135347519Y-80925015D01*
X135228985Y-80806481D01*
X135135853Y-80667100D01*
X135071703Y-80512228D01*
X135039000Y-80347816D01*
X135039000Y-80180184D01*
X135071703Y-80015772D01*
X135135853Y-79860900D01*
X135228985Y-79721519D01*
X135347519Y-79602985D01*
X135486900Y-79509853D01*
X135641772Y-79445703D01*
X135806184Y-79413000D01*
X135973816Y-79413000D01*
X136138228Y-79445703D01*
G37*
G36*
X123438228Y-79445703D02*
G01*
X123593100Y-79509853D01*
X123732481Y-79602985D01*
X123851015Y-79721519D01*
X123944147Y-79860900D01*
X124008297Y-80015772D01*
X124041000Y-80180184D01*
X124041000Y-80347816D01*
X124008297Y-80512228D01*
X123944147Y-80667100D01*
X123851015Y-80806481D01*
X123732481Y-80925015D01*
X123593100Y-81018147D01*
X123438228Y-81082297D01*
X123273816Y-81115000D01*
X123106184Y-81115000D01*
X122941772Y-81082297D01*
X122786900Y-81018147D01*
X122647519Y-80925015D01*
X122528985Y-80806481D01*
X122435853Y-80667100D01*
X122371703Y-80512228D01*
X122339000Y-80347816D01*
X122339000Y-80180184D01*
X122371703Y-80015772D01*
X122435853Y-79860900D01*
X122528985Y-79721519D01*
X122647519Y-79602985D01*
X122786900Y-79509853D01*
X122941772Y-79445703D01*
X123106184Y-79413000D01*
X123273816Y-79413000D01*
X123438228Y-79445703D01*
G37*
G36*
X120898228Y-79445703D02*
G01*
X121053100Y-79509853D01*
X121192481Y-79602985D01*
X121311015Y-79721519D01*
X121404147Y-79860900D01*
X121468297Y-80015772D01*
X121501000Y-80180184D01*
X121501000Y-80347816D01*
X121468297Y-80512228D01*
X121404147Y-80667100D01*
X121311015Y-80806481D01*
X121192481Y-80925015D01*
X121053100Y-81018147D01*
X120898228Y-81082297D01*
X120733816Y-81115000D01*
X120566184Y-81115000D01*
X120401772Y-81082297D01*
X120246900Y-81018147D01*
X120107519Y-80925015D01*
X119988985Y-80806481D01*
X119895853Y-80667100D01*
X119831703Y-80512228D01*
X119799000Y-80347816D01*
X119799000Y-80180184D01*
X119831703Y-80015772D01*
X119895853Y-79860900D01*
X119988985Y-79721519D01*
X120107519Y-79602985D01*
X120246900Y-79509853D01*
X120401772Y-79445703D01*
X120566184Y-79413000D01*
X120733816Y-79413000D01*
X120898228Y-79445703D01*
G37*
G36*
X138678228Y-76905703D02*
G01*
X138833100Y-76969853D01*
X138972481Y-77062985D01*
X139091015Y-77181519D01*
X139184147Y-77320900D01*
X139248297Y-77475772D01*
X139281000Y-77640184D01*
X139281000Y-77807816D01*
X139248297Y-77972228D01*
X139184147Y-78127100D01*
X139091015Y-78266481D01*
X138972481Y-78385015D01*
X138833100Y-78478147D01*
X138678228Y-78542297D01*
X138513816Y-78575000D01*
X138346184Y-78575000D01*
X138181772Y-78542297D01*
X138026900Y-78478147D01*
X137887519Y-78385015D01*
X137768985Y-78266481D01*
X137675853Y-78127100D01*
X137611703Y-77972228D01*
X137579000Y-77807816D01*
X137579000Y-77640184D01*
X137611703Y-77475772D01*
X137675853Y-77320900D01*
X137768985Y-77181519D01*
X137887519Y-77062985D01*
X138026900Y-76969853D01*
X138181772Y-76905703D01*
X138346184Y-76873000D01*
X138513816Y-76873000D01*
X138678228Y-76905703D01*
G37*
G36*
X120898228Y-76905703D02*
G01*
X121053100Y-76969853D01*
X121192481Y-77062985D01*
X121311015Y-77181519D01*
X121404147Y-77320900D01*
X121468297Y-77475772D01*
X121501000Y-77640184D01*
X121501000Y-77807816D01*
X121468297Y-77972228D01*
X121404147Y-78127100D01*
X121311015Y-78266481D01*
X121192481Y-78385015D01*
X121053100Y-78478147D01*
X120898228Y-78542297D01*
X120733816Y-78575000D01*
X120566184Y-78575000D01*
X120401772Y-78542297D01*
X120246900Y-78478147D01*
X120107519Y-78385015D01*
X119988985Y-78266481D01*
X119895853Y-78127100D01*
X119831703Y-77972228D01*
X119799000Y-77807816D01*
X119799000Y-77640184D01*
X119831703Y-77475772D01*
X119895853Y-77320900D01*
X119988985Y-77181519D01*
X120107519Y-77062985D01*
X120246900Y-76969853D01*
X120401772Y-76905703D01*
X120566184Y-76873000D01*
X120733816Y-76873000D01*
X120898228Y-76905703D01*
G37*
G36*
X123438228Y-76905703D02*
G01*
X123593100Y-76969853D01*
X123732481Y-77062985D01*
X123851015Y-77181519D01*
X123944147Y-77320900D01*
X124008297Y-77475772D01*
X124041000Y-77640184D01*
X124041000Y-77807816D01*
X124008297Y-77972228D01*
X123944147Y-78127100D01*
X123851015Y-78266481D01*
X123732481Y-78385015D01*
X123593100Y-78478147D01*
X123438228Y-78542297D01*
X123273816Y-78575000D01*
X123106184Y-78575000D01*
X122941772Y-78542297D01*
X122786900Y-78478147D01*
X122647519Y-78385015D01*
X122528985Y-78266481D01*
X122435853Y-78127100D01*
X122371703Y-77972228D01*
X122339000Y-77807816D01*
X122339000Y-77640184D01*
X122371703Y-77475772D01*
X122435853Y-77320900D01*
X122528985Y-77181519D01*
X122647519Y-77062985D01*
X122786900Y-76969853D01*
X122941772Y-76905703D01*
X123106184Y-76873000D01*
X123273816Y-76873000D01*
X123438228Y-76905703D01*
G37*
G36*
X136138228Y-76905703D02*
G01*
X136293100Y-76969853D01*
X136432481Y-77062985D01*
X136551015Y-77181519D01*
X136644147Y-77320900D01*
X136708297Y-77475772D01*
X136741000Y-77640184D01*
X136741000Y-77807816D01*
X136708297Y-77972228D01*
X136644147Y-78127100D01*
X136551015Y-78266481D01*
X136432481Y-78385015D01*
X136293100Y-78478147D01*
X136138228Y-78542297D01*
X135973816Y-78575000D01*
X135806184Y-78575000D01*
X135641772Y-78542297D01*
X135486900Y-78478147D01*
X135347519Y-78385015D01*
X135228985Y-78266481D01*
X135135853Y-78127100D01*
X135071703Y-77972228D01*
X135039000Y-77807816D01*
X135039000Y-77640184D01*
X135071703Y-77475772D01*
X135135853Y-77320900D01*
X135228985Y-77181519D01*
X135347519Y-77062985D01*
X135486900Y-76969853D01*
X135641772Y-76905703D01*
X135806184Y-76873000D01*
X135973816Y-76873000D01*
X136138228Y-76905703D01*
G37*
G36*
X132502228Y-75625703D02*
G01*
X132657100Y-75689853D01*
X132796481Y-75782985D01*
X132915015Y-75901519D01*
X133008147Y-76040900D01*
X133072297Y-76195772D01*
X133105000Y-76360184D01*
X133105000Y-76527816D01*
X133072297Y-76692228D01*
X133008147Y-76847100D01*
X132915015Y-76986481D01*
X132796481Y-77105015D01*
X132657100Y-77198147D01*
X132502228Y-77262297D01*
X132337816Y-77295000D01*
X132170184Y-77295000D01*
X132005772Y-77262297D01*
X131850900Y-77198147D01*
X131711519Y-77105015D01*
X131592985Y-76986481D01*
X131499853Y-76847100D01*
X131435703Y-76692228D01*
X131403000Y-76527816D01*
X131403000Y-76360184D01*
X131435703Y-76195772D01*
X131499853Y-76040900D01*
X131592985Y-75901519D01*
X131711519Y-75782985D01*
X131850900Y-75689853D01*
X132005772Y-75625703D01*
X132170184Y-75593000D01*
X132337816Y-75593000D01*
X132502228Y-75625703D01*
G37*
G36*
X127252228Y-75625703D02*
G01*
X127407100Y-75689853D01*
X127546481Y-75782985D01*
X127665015Y-75901519D01*
X127758147Y-76040900D01*
X127822297Y-76195772D01*
X127855000Y-76360184D01*
X127855000Y-76527816D01*
X127822297Y-76692228D01*
X127758147Y-76847100D01*
X127665015Y-76986481D01*
X127546481Y-77105015D01*
X127407100Y-77198147D01*
X127252228Y-77262297D01*
X127087816Y-77295000D01*
X126920184Y-77295000D01*
X126755772Y-77262297D01*
X126600900Y-77198147D01*
X126461519Y-77105015D01*
X126342985Y-76986481D01*
X126249853Y-76847100D01*
X126185703Y-76692228D01*
X126153000Y-76527816D01*
X126153000Y-76360184D01*
X126185703Y-76195772D01*
X126249853Y-76040900D01*
X126342985Y-75901519D01*
X126461519Y-75782985D01*
X126600900Y-75689853D01*
X126755772Y-75625703D01*
X126920184Y-75593000D01*
X127087816Y-75593000D01*
X127252228Y-75625703D01*
G37*
G36*
X136138228Y-74365703D02*
G01*
X136293100Y-74429853D01*
X136432481Y-74522985D01*
X136551015Y-74641519D01*
X136644147Y-74780900D01*
X136708297Y-74935772D01*
X136741000Y-75100184D01*
X136741000Y-75267816D01*
X136708297Y-75432228D01*
X136644147Y-75587100D01*
X136551015Y-75726481D01*
X136432481Y-75845015D01*
X136293100Y-75938147D01*
X136138228Y-76002297D01*
X135973816Y-76035000D01*
X135806184Y-76035000D01*
X135641772Y-76002297D01*
X135486900Y-75938147D01*
X135347519Y-75845015D01*
X135228985Y-75726481D01*
X135135853Y-75587100D01*
X135071703Y-75432228D01*
X135039000Y-75267816D01*
X135039000Y-75100184D01*
X135071703Y-74935772D01*
X135135853Y-74780900D01*
X135228985Y-74641519D01*
X135347519Y-74522985D01*
X135486900Y-74429853D01*
X135641772Y-74365703D01*
X135806184Y-74333000D01*
X135973816Y-74333000D01*
X136138228Y-74365703D01*
G37*
G36*
X138678228Y-74365703D02*
G01*
X138833100Y-74429853D01*
X138972481Y-74522985D01*
X139091015Y-74641519D01*
X139184147Y-74780900D01*
X139248297Y-74935772D01*
X139281000Y-75100184D01*
X139281000Y-75267816D01*
X139248297Y-75432228D01*
X139184147Y-75587100D01*
X139091015Y-75726481D01*
X138972481Y-75845015D01*
X138833100Y-75938147D01*
X138678228Y-76002297D01*
X138513816Y-76035000D01*
X138346184Y-76035000D01*
X138181772Y-76002297D01*
X138026900Y-75938147D01*
X137887519Y-75845015D01*
X137768985Y-75726481D01*
X137675853Y-75587100D01*
X137611703Y-75432228D01*
X137579000Y-75267816D01*
X137579000Y-75100184D01*
X137611703Y-74935772D01*
X137675853Y-74780900D01*
X137768985Y-74641519D01*
X137887519Y-74522985D01*
X138026900Y-74429853D01*
X138181772Y-74365703D01*
X138346184Y-74333000D01*
X138513816Y-74333000D01*
X138678228Y-74365703D01*
G37*
G36*
X123438228Y-74365703D02*
G01*
X123593100Y-74429853D01*
X123732481Y-74522985D01*
X123851015Y-74641519D01*
X123944147Y-74780900D01*
X124008297Y-74935772D01*
X124041000Y-75100184D01*
X124041000Y-75267816D01*
X124008297Y-75432228D01*
X123944147Y-75587100D01*
X123851015Y-75726481D01*
X123732481Y-75845015D01*
X123593100Y-75938147D01*
X123438228Y-76002297D01*
X123273816Y-76035000D01*
X123106184Y-76035000D01*
X122941772Y-76002297D01*
X122786900Y-75938147D01*
X122647519Y-75845015D01*
X122528985Y-75726481D01*
X122435853Y-75587100D01*
X122371703Y-75432228D01*
X122339000Y-75267816D01*
X122339000Y-75100184D01*
X122371703Y-74935772D01*
X122435853Y-74780900D01*
X122528985Y-74641519D01*
X122647519Y-74522985D01*
X122786900Y-74429853D01*
X122941772Y-74365703D01*
X123106184Y-74333000D01*
X123273816Y-74333000D01*
X123438228Y-74365703D01*
G37*
G36*
X120898228Y-74365703D02*
G01*
X121053100Y-74429853D01*
X121192481Y-74522985D01*
X121311015Y-74641519D01*
X121404147Y-74780900D01*
X121468297Y-74935772D01*
X121501000Y-75100184D01*
X121501000Y-75267816D01*
X121468297Y-75432228D01*
X121404147Y-75587100D01*
X121311015Y-75726481D01*
X121192481Y-75845015D01*
X121053100Y-75938147D01*
X120898228Y-76002297D01*
X120733816Y-76035000D01*
X120566184Y-76035000D01*
X120401772Y-76002297D01*
X120246900Y-75938147D01*
X120107519Y-75845015D01*
X119988985Y-75726481D01*
X119895853Y-75587100D01*
X119831703Y-75432228D01*
X119799000Y-75267816D01*
X119799000Y-75100184D01*
X119831703Y-74935772D01*
X119895853Y-74780900D01*
X119988985Y-74641519D01*
X120107519Y-74522985D01*
X120246900Y-74429853D01*
X120401772Y-74365703D01*
X120566184Y-74333000D01*
X120733816Y-74333000D01*
X120898228Y-74365703D01*
G37*
G36*
X123438228Y-71825703D02*
G01*
X123593100Y-71889853D01*
X123732481Y-71982985D01*
X123851015Y-72101519D01*
X123944147Y-72240900D01*
X124008297Y-72395772D01*
X124041000Y-72560184D01*
X124041000Y-72727816D01*
X124008297Y-72892228D01*
X123944147Y-73047100D01*
X123851015Y-73186481D01*
X123732481Y-73305015D01*
X123593100Y-73398147D01*
X123438228Y-73462297D01*
X123273816Y-73495000D01*
X123106184Y-73495000D01*
X122941772Y-73462297D01*
X122786900Y-73398147D01*
X122647519Y-73305015D01*
X122528985Y-73186481D01*
X122435853Y-73047100D01*
X122371703Y-72892228D01*
X122339000Y-72727816D01*
X122339000Y-72560184D01*
X122371703Y-72395772D01*
X122435853Y-72240900D01*
X122528985Y-72101519D01*
X122647519Y-71982985D01*
X122786900Y-71889853D01*
X122941772Y-71825703D01*
X123106184Y-71793000D01*
X123273816Y-71793000D01*
X123438228Y-71825703D01*
G37*
G36*
X138678228Y-71825703D02*
G01*
X138833100Y-71889853D01*
X138972481Y-71982985D01*
X139091015Y-72101519D01*
X139184147Y-72240900D01*
X139248297Y-72395772D01*
X139281000Y-72560184D01*
X139281000Y-72727816D01*
X139248297Y-72892228D01*
X139184147Y-73047100D01*
X139091015Y-73186481D01*
X138972481Y-73305015D01*
X138833100Y-73398147D01*
X138678228Y-73462297D01*
X138513816Y-73495000D01*
X138346184Y-73495000D01*
X138181772Y-73462297D01*
X138026900Y-73398147D01*
X137887519Y-73305015D01*
X137768985Y-73186481D01*
X137675853Y-73047100D01*
X137611703Y-72892228D01*
X137579000Y-72727816D01*
X137579000Y-72560184D01*
X137611703Y-72395772D01*
X137675853Y-72240900D01*
X137768985Y-72101519D01*
X137887519Y-71982985D01*
X138026900Y-71889853D01*
X138181772Y-71825703D01*
X138346184Y-71793000D01*
X138513816Y-71793000D01*
X138678228Y-71825703D01*
G37*
G36*
X136138228Y-71825703D02*
G01*
X136293100Y-71889853D01*
X136432481Y-71982985D01*
X136551015Y-72101519D01*
X136644147Y-72240900D01*
X136708297Y-72395772D01*
X136741000Y-72560184D01*
X136741000Y-72727816D01*
X136708297Y-72892228D01*
X136644147Y-73047100D01*
X136551015Y-73186481D01*
X136432481Y-73305015D01*
X136293100Y-73398147D01*
X136138228Y-73462297D01*
X135973816Y-73495000D01*
X135806184Y-73495000D01*
X135641772Y-73462297D01*
X135486900Y-73398147D01*
X135347519Y-73305015D01*
X135228985Y-73186481D01*
X135135853Y-73047100D01*
X135071703Y-72892228D01*
X135039000Y-72727816D01*
X135039000Y-72560184D01*
X135071703Y-72395772D01*
X135135853Y-72240900D01*
X135228985Y-72101519D01*
X135347519Y-71982985D01*
X135486900Y-71889853D01*
X135641772Y-71825703D01*
X135806184Y-71793000D01*
X135973816Y-71793000D01*
X136138228Y-71825703D01*
G37*
G36*
X121501000Y-73495000D02*
G01*
X119799000Y-73495000D01*
X119799000Y-71793000D01*
X121501000Y-71793000D01*
X121501000Y-73495000D01*
G37*
G36*
X123438228Y-69285703D02*
G01*
X123593100Y-69349853D01*
X123732481Y-69442985D01*
X123851015Y-69561519D01*
X123944147Y-69700900D01*
X124008297Y-69855772D01*
X124041000Y-70020184D01*
X124041000Y-70187816D01*
X124008297Y-70352228D01*
X123944147Y-70507100D01*
X123851015Y-70646481D01*
X123732481Y-70765015D01*
X123593100Y-70858147D01*
X123438228Y-70922297D01*
X123273816Y-70955000D01*
X123106184Y-70955000D01*
X122941772Y-70922297D01*
X122786900Y-70858147D01*
X122647519Y-70765015D01*
X122528985Y-70646481D01*
X122435853Y-70507100D01*
X122371703Y-70352228D01*
X122339000Y-70187816D01*
X122339000Y-70020184D01*
X122371703Y-69855772D01*
X122435853Y-69700900D01*
X122528985Y-69561519D01*
X122647519Y-69442985D01*
X122786900Y-69349853D01*
X122941772Y-69285703D01*
X123106184Y-69253000D01*
X123273816Y-69253000D01*
X123438228Y-69285703D01*
G37*
G36*
X138678228Y-69285703D02*
G01*
X138833100Y-69349853D01*
X138972481Y-69442985D01*
X139091015Y-69561519D01*
X139184147Y-69700900D01*
X139248297Y-69855772D01*
X139281000Y-70020184D01*
X139281000Y-70187816D01*
X139248297Y-70352228D01*
X139184147Y-70507100D01*
X139091015Y-70646481D01*
X138972481Y-70765015D01*
X138833100Y-70858147D01*
X138678228Y-70922297D01*
X138513816Y-70955000D01*
X138346184Y-70955000D01*
X138181772Y-70922297D01*
X138026900Y-70858147D01*
X137887519Y-70765015D01*
X137768985Y-70646481D01*
X137675853Y-70507100D01*
X137611703Y-70352228D01*
X137579000Y-70187816D01*
X137579000Y-70020184D01*
X137611703Y-69855772D01*
X137675853Y-69700900D01*
X137768985Y-69561519D01*
X137887519Y-69442985D01*
X138026900Y-69349853D01*
X138181772Y-69285703D01*
X138346184Y-69253000D01*
X138513816Y-69253000D01*
X138678228Y-69285703D01*
G37*
G36*
X138678228Y-66745703D02*
G01*
X138833100Y-66809853D01*
X138972481Y-66902985D01*
X139091015Y-67021519D01*
X139184147Y-67160900D01*
X139248297Y-67315772D01*
X139281000Y-67480184D01*
X139281000Y-67647816D01*
X139248297Y-67812228D01*
X139184147Y-67967100D01*
X139091015Y-68106481D01*
X138972481Y-68225015D01*
X138833100Y-68318147D01*
X138678228Y-68382297D01*
X138513816Y-68415000D01*
X138346184Y-68415000D01*
X138181772Y-68382297D01*
X138026900Y-68318147D01*
X137887519Y-68225015D01*
X137768985Y-68106481D01*
X137675853Y-67967100D01*
X137611703Y-67812228D01*
X137579000Y-67647816D01*
X137579000Y-67480184D01*
X137611703Y-67315772D01*
X137675853Y-67160900D01*
X137768985Y-67021519D01*
X137887519Y-66902985D01*
X138026900Y-66809853D01*
X138181772Y-66745703D01*
X138346184Y-66713000D01*
X138513816Y-66713000D01*
X138678228Y-66745703D01*
G37*
G36*
X124041000Y-68415000D02*
G01*
X122339000Y-68415000D01*
X122339000Y-66713000D01*
X124041000Y-66713000D01*
X124041000Y-68415000D01*
G37*
G36*
X133233512Y-63103927D02*
G01*
X133382812Y-63133624D01*
X133546784Y-63201544D01*
X133694354Y-63300147D01*
X133819853Y-63425646D01*
X133918456Y-63573216D01*
X133986376Y-63737188D01*
X134021000Y-63911259D01*
X134021000Y-64088741D01*
X133986376Y-64262812D01*
X133918456Y-64426784D01*
X133819853Y-64574354D01*
X133694354Y-64699853D01*
X133546784Y-64798456D01*
X133382812Y-64866376D01*
X133233512Y-64896073D01*
X133208742Y-64901000D01*
X133031258Y-64901000D01*
X133006488Y-64896073D01*
X132857188Y-64866376D01*
X132693216Y-64798456D01*
X132545646Y-64699853D01*
X132420147Y-64574354D01*
X132321544Y-64426784D01*
X132253624Y-64262812D01*
X132219000Y-64088741D01*
X132219000Y-63911259D01*
X132253624Y-63737188D01*
X132321544Y-63573216D01*
X132420147Y-63425646D01*
X132545646Y-63300147D01*
X132693216Y-63201544D01*
X132857188Y-63133624D01*
X133006488Y-63103927D01*
X133031258Y-63099000D01*
X133208742Y-63099000D01*
X133233512Y-63103927D01*
G37*
G36*
X130693512Y-63103927D02*
G01*
X130842812Y-63133624D01*
X131006784Y-63201544D01*
X131154354Y-63300147D01*
X131279853Y-63425646D01*
X131378456Y-63573216D01*
X131446376Y-63737188D01*
X131481000Y-63911259D01*
X131481000Y-64088741D01*
X131446376Y-64262812D01*
X131378456Y-64426784D01*
X131279853Y-64574354D01*
X131154354Y-64699853D01*
X131006784Y-64798456D01*
X130842812Y-64866376D01*
X130693512Y-64896073D01*
X130668742Y-64901000D01*
X130491258Y-64901000D01*
X130466488Y-64896073D01*
X130317188Y-64866376D01*
X130153216Y-64798456D01*
X130005646Y-64699853D01*
X129880147Y-64574354D01*
X129781544Y-64426784D01*
X129713624Y-64262812D01*
X129679000Y-64088741D01*
X129679000Y-63911259D01*
X129713624Y-63737188D01*
X129781544Y-63573216D01*
X129880147Y-63425646D01*
X130005646Y-63300147D01*
X130153216Y-63201544D01*
X130317188Y-63133624D01*
X130466488Y-63103927D01*
X130491258Y-63099000D01*
X130668742Y-63099000D01*
X130693512Y-63103927D01*
G37*
G36*
X128153512Y-63103927D02*
G01*
X128302812Y-63133624D01*
X128466784Y-63201544D01*
X128614354Y-63300147D01*
X128739853Y-63425646D01*
X128838456Y-63573216D01*
X128906376Y-63737188D01*
X128941000Y-63911259D01*
X128941000Y-64088741D01*
X128906376Y-64262812D01*
X128838456Y-64426784D01*
X128739853Y-64574354D01*
X128614354Y-64699853D01*
X128466784Y-64798456D01*
X128302812Y-64866376D01*
X128153512Y-64896073D01*
X128128742Y-64901000D01*
X127951258Y-64901000D01*
X127926488Y-64896073D01*
X127777188Y-64866376D01*
X127613216Y-64798456D01*
X127465646Y-64699853D01*
X127340147Y-64574354D01*
X127241544Y-64426784D01*
X127173624Y-64262812D01*
X127139000Y-64088741D01*
X127139000Y-63911259D01*
X127173624Y-63737188D01*
X127241544Y-63573216D01*
X127340147Y-63425646D01*
X127465646Y-63300147D01*
X127613216Y-63201544D01*
X127777188Y-63133624D01*
X127926488Y-63103927D01*
X127951258Y-63099000D01*
X128128742Y-63099000D01*
X128153512Y-63103927D01*
G37*
G36*
X126401000Y-64901000D02*
G01*
X124599000Y-64901000D01*
X124599000Y-63099000D01*
X126401000Y-63099000D01*
X126401000Y-64901000D01*
G37*
M02*
