G04 #@! TF.GenerationSoftware,KiCad,Pcbnew,(5.1.6)-1*
G04 #@! TF.CreationDate,2020-07-21T10:16:09+03:00*
G04 #@! TF.ProjectId,C64_8Kernal,4336345f-384b-4657-926e-616c2e6b6963,rev?*
G04 #@! TF.SameCoordinates,Original*
G04 #@! TF.FileFunction,Copper,L1,Top*
G04 #@! TF.FilePolarity,Positive*
%FSLAX46Y46*%
G04 Gerber Fmt 4.6, Leading zero omitted, Abs format (unit mm)*
G04 Created by KiCad (PCBNEW (5.1.6)-1) date 2020-07-21 10:16:09*
%MOMM*%
%LPD*%
G01*
G04 APERTURE LIST*
G04 #@! TA.AperFunction,ComponentPad*
%ADD10O,1.600000X1.600000*%
G04 #@! TD*
G04 #@! TA.AperFunction,ComponentPad*
%ADD11C,1.600000*%
G04 #@! TD*
G04 #@! TA.AperFunction,ComponentPad*
%ADD12R,1.600000X1.600000*%
G04 #@! TD*
G04 #@! TA.AperFunction,ComponentPad*
%ADD13O,1.700000X1.700000*%
G04 #@! TD*
G04 #@! TA.AperFunction,ComponentPad*
%ADD14R,1.700000X1.700000*%
G04 #@! TD*
G04 #@! TA.AperFunction,ViaPad*
%ADD15C,0.900000*%
G04 #@! TD*
G04 #@! TA.AperFunction,Conductor*
%ADD16C,0.400000*%
G04 #@! TD*
G04 #@! TA.AperFunction,Conductor*
%ADD17C,0.300000*%
G04 #@! TD*
G04 APERTURE END LIST*
D10*
X129540000Y-89916000D03*
D11*
X129540000Y-97536000D03*
D10*
X132254000Y-76444000D03*
D11*
X132254000Y-84064000D03*
D10*
X127004000Y-76444000D03*
D11*
X127004000Y-84064000D03*
D10*
X135890000Y-72644000D03*
X120650000Y-100584000D03*
X135890000Y-75184000D03*
X120650000Y-98044000D03*
X135890000Y-77724000D03*
X120650000Y-95504000D03*
X135890000Y-80264000D03*
X120650000Y-92964000D03*
X135890000Y-82804000D03*
X120650000Y-90424000D03*
X135890000Y-85344000D03*
X120650000Y-87884000D03*
X135890000Y-87884000D03*
X120650000Y-85344000D03*
X135890000Y-90424000D03*
X120650000Y-82804000D03*
X135890000Y-92964000D03*
X120650000Y-80264000D03*
X135890000Y-95504000D03*
X120650000Y-77724000D03*
X135890000Y-98044000D03*
X120650000Y-75184000D03*
X135890000Y-100584000D03*
D12*
X120650000Y-72644000D03*
D10*
X138430000Y-67564000D03*
X123190000Y-100584000D03*
X138430000Y-70104000D03*
X123190000Y-98044000D03*
X138430000Y-72644000D03*
X123190000Y-95504000D03*
X138430000Y-75184000D03*
X123190000Y-92964000D03*
X138430000Y-77724000D03*
X123190000Y-90424000D03*
X138430000Y-80264000D03*
X123190000Y-87884000D03*
X138430000Y-82804000D03*
X123190000Y-85344000D03*
X138430000Y-85344000D03*
X123190000Y-82804000D03*
X138430000Y-87884000D03*
X123190000Y-80264000D03*
X138430000Y-90424000D03*
X123190000Y-77724000D03*
X138430000Y-92964000D03*
X123190000Y-75184000D03*
X138430000Y-95504000D03*
X123190000Y-72644000D03*
X138430000Y-98044000D03*
X123190000Y-70104000D03*
X138430000Y-100584000D03*
D12*
X123190000Y-67564000D03*
D13*
X133120000Y-64000000D03*
X130580000Y-64000000D03*
X128040000Y-64000000D03*
D14*
X125500000Y-64000000D03*
D15*
X131318000Y-69088000D03*
X129032000Y-78486000D03*
X129032000Y-82042000D03*
X133858000Y-68834000D03*
X133858000Y-78740000D03*
D16*
X133120000Y-64000000D02*
X133120000Y-67286000D01*
X133120000Y-67286000D02*
X131318000Y-69088000D01*
X131318000Y-69088000D02*
X131318000Y-69088000D01*
X129032000Y-78486000D02*
X129032000Y-82042000D01*
X129032000Y-82042000D02*
X129032000Y-82042000D01*
D17*
X128040000Y-67588000D02*
X128040000Y-64000000D01*
X130556000Y-70104000D02*
X128040000Y-67588000D01*
X132254000Y-76444000D02*
X132254000Y-70184000D01*
X138430000Y-70104000D02*
X132334000Y-70104000D01*
X132254000Y-70184000D02*
X132334000Y-70104000D01*
X132334000Y-70104000D02*
X130556000Y-70104000D01*
X129540000Y-89916000D02*
X127000000Y-89916000D01*
X127000000Y-89916000D02*
X125476000Y-88392000D01*
X123190000Y-67564000D02*
X123190000Y-66310000D01*
X125476000Y-67310000D02*
X123833000Y-65667000D01*
X125476000Y-88392000D02*
X125476000Y-67310000D01*
X123190000Y-66310000D02*
X123833000Y-65667000D01*
X123833000Y-65667000D02*
X125500000Y-64000000D01*
D16*
X127004000Y-84064000D02*
X132254000Y-84064000D01*
X129540000Y-97536000D02*
X131826000Y-97536000D01*
X131826000Y-84492000D02*
X132254000Y-84064000D01*
X131826000Y-97536000D02*
X131826000Y-84492000D01*
X138430000Y-67564000D02*
X135128000Y-67564000D01*
X135128000Y-67564000D02*
X133858000Y-68834000D01*
X133858000Y-68834000D02*
X133858000Y-68834000D01*
X133858000Y-82460000D02*
X132254000Y-84064000D01*
X133858000Y-78740000D02*
X133858000Y-82460000D01*
D17*
X135890000Y-75184000D02*
X138430000Y-75184000D01*
X120650000Y-98044000D02*
X123190000Y-98044000D01*
X135890000Y-77724000D02*
X138430000Y-77724000D01*
X120650000Y-95504000D02*
X123190000Y-95504000D01*
X120650000Y-92964000D02*
X123190000Y-92964000D01*
X135890000Y-82804000D02*
X138430000Y-82804000D01*
X120650000Y-90424000D02*
X123190000Y-90424000D01*
X135890000Y-85344000D02*
X138430000Y-85344000D01*
X120650000Y-87884000D02*
X123190000Y-87884000D01*
X120650000Y-85344000D02*
X123190000Y-85344000D01*
X135890000Y-90424000D02*
X138430000Y-90424000D01*
X120650000Y-82804000D02*
X123190000Y-82804000D01*
X135890000Y-92964000D02*
X138430000Y-92964000D01*
X120650000Y-80264000D02*
X123190000Y-80264000D01*
X135890000Y-95504000D02*
X138430000Y-95504000D01*
X120650000Y-77724000D02*
X123190000Y-77724000D01*
X135890000Y-98044000D02*
X138430000Y-98044000D01*
X120650000Y-75184000D02*
X123190000Y-75184000D01*
X135890000Y-100584000D02*
X138430000Y-100584000D01*
X120650000Y-72644000D02*
X123190000Y-72644000D01*
M02*
